<svg xmlns="http://www.w3.org/2000/svg" width="19.415" height="14.815" viewBox="0 0 19.415 14.815">
  <g id="Icon_ionic-md-arrow-back" data-name="Icon ionic-md-arrow-back" transform="translate(18 13.414) rotate(180)" fill="white">
    <path d="M 6.003448963165283 12.70691013336182 L 5.649989128112793 12.35365009307861 L -0.3534509539604187 6.353650093078613 L -0.7073109745979309 6 L -0.3534509539604187 5.646349906921387 L 5.649989128112793 -0.3536500036716461 L 5.997259140014648 -0.70073002576828 L 6.350598812103271 -0.3598400056362152 L 7.438868999481201 0.690090000629425 L 7.805318832397461 1.043630003929138 L 7.445158958435059 1.403579950332642 L 4.096827030181885 4.75 L 17 4.75 L 17.5 4.75 L 17.5 5.25 L 17.5 6.75 L 17.5 7.25 L 17 7.25 L 4.089169502258301 7.25 L 7.408978939056396 10.59797954559326 L 7.759649276733398 10.95162010192871 L 7.40739917755127 11.30368041992188 L 6.356899261474609 12.35363960266113 L 6.003448963165283 12.70691013336182 Z" stroke="none"/>
    <path d="M 6.003438949584961 0 L -1.9073486328125e-06 6 L 6.003438949584961 12 L 7.053938865661621 10.95003032684326 L 2.889239311218262 6.75 L 17 6.75 L 17 5.25 L 2.889239311218262 5.25 L 7.091709136962891 1.049929618835449 L 6.003438949584961 0 M 5.991079330444336 -1.401450157165527 L 8.518929481506348 1.03734016418457 L 5.304424285888672 4.25 L 18 4.25 L 18 7.75 L 5.289104461669922 7.75 L 8.465349197387695 10.95318984985352 L 6.003458976745605 13.4138298034668 L -1.414621353149414 6 L 5.991079330444336 -1.401450157165527 Z" stroke="none" fill="#fff"/>
  </g>
</svg>
