<svg xmlns="http://www.w3.org/2000/svg" xmlns:xlink="http://www.w3.org/1999/xlink" width="177" height="167" viewBox="0 0 177 167">
  <defs>
    <clipPath id="clip-path">
      <rect width="177" height="167" fill="none"/>
    </clipPath>
  </defs>
  <g id="bolinhas" clip-path="url(#clip-path)">
    <g transform="translate(-1212 -1249)">
      <circle id="Elipse_1" data-name="Elipse 1" cx="2.5" cy="2.5" r="2.5" transform="translate(1212 1249)" fill="#fff"/>
    </g>
    <g transform="translate(-1178 -1249)">
      <circle id="Elipse_1-2" data-name="Elipse 1" cx="2.5" cy="2.5" r="2.5" transform="translate(1212 1249)" fill="#fff"/>
    </g>
    <g transform="translate(-1144 -1249)">
      <circle id="Elipse_1-3" data-name="Elipse 1" cx="2.5" cy="2.5" r="2.5" transform="translate(1212 1249)" fill="#fff"/>
    </g>
    <g transform="translate(-1110 -1249)">
      <circle id="Elipse_1-4" data-name="Elipse 1" cx="2.5" cy="2.5" r="2.5" transform="translate(1212 1249)" fill="#fff"/>
    </g>
    <g transform="translate(-1076 -1249)">
      <circle id="Elipse_1-5" data-name="Elipse 1" cx="2.5" cy="2.5" r="2.5" transform="translate(1212 1249)" fill="#fff"/>
    </g>
    <g transform="translate(-1042 -1249)">
      <circle id="Elipse_1-6" data-name="Elipse 1" cx="2.5" cy="2.5" r="2.5" transform="translate(1212 1249)" fill="#fff"/>
    </g>
    <g transform="translate(-1212 -1210)">
      <circle id="Elipse_1-7" data-name="Elipse 1" cx="2.5" cy="2.5" r="2.5" transform="translate(1212 1249)" fill="#fff"/>
    </g>
    <g transform="translate(-1178 -1210)">
      <circle id="Elipse_1-8" data-name="Elipse 1" cx="2.5" cy="2.5" r="2.5" transform="translate(1212 1249)" fill="#fff"/>
    </g>
    <g transform="translate(-1144 -1210)">
      <circle id="Elipse_1-9" data-name="Elipse 1" cx="2.5" cy="2.5" r="2.5" transform="translate(1212 1249)" fill="#fff"/>
    </g>
    <g transform="translate(-1110 -1210)">
      <circle id="Elipse_1-10" data-name="Elipse 1" cx="2.5" cy="2.5" r="2.5" transform="translate(1212 1249)" fill="#fff"/>
    </g>
    <g transform="translate(-1076 -1210)">
      <circle id="Elipse_1-11" data-name="Elipse 1" cx="2.5" cy="2.5" r="2.5" transform="translate(1212 1249)" fill="#fff"/>
    </g>
    <g transform="translate(-1042 -1210)">
      <circle id="Elipse_1-12" data-name="Elipse 1" cx="2.5" cy="2.5" r="2.5" transform="translate(1212 1249)" fill="#fff"/>
    </g>
    <g transform="translate(-1212 -1171)">
      <circle id="Elipse_1-13" data-name="Elipse 1" cx="2.5" cy="2.5" r="2.5" transform="translate(1212 1249)" fill="#fff"/>
    </g>
    <g transform="translate(-1178 -1171)">
      <circle id="Elipse_1-14" data-name="Elipse 1" cx="2.5" cy="2.5" r="2.5" transform="translate(1212 1249)" fill="#fff"/>
    </g>
    <g transform="translate(-1144 -1171)">
      <circle id="Elipse_1-15" data-name="Elipse 1" cx="2.5" cy="2.5" r="2.5" transform="translate(1212 1249)" fill="#fff"/>
    </g>
    <g transform="translate(-1110 -1171)">
      <circle id="Elipse_1-16" data-name="Elipse 1" cx="2.5" cy="2.5" r="2.5" transform="translate(1212 1249)" fill="#fff"/>
    </g>
    <g transform="translate(-1076 -1171)">
      <circle id="Elipse_1-17" data-name="Elipse 1" cx="2.5" cy="2.5" r="2.5" transform="translate(1212 1249)" fill="#fff"/>
    </g>
    <g transform="translate(-1042 -1171)">
      <circle id="Elipse_1-18" data-name="Elipse 1" cx="2.5" cy="2.5" r="2.5" transform="translate(1212 1249)" fill="#fff"/>
    </g>
    <g transform="translate(-1212 -1132)">
      <circle id="Elipse_1-19" data-name="Elipse 1" cx="2.5" cy="2.5" r="2.5" transform="translate(1212 1249)" fill="#fff"/>
    </g>
    <g transform="translate(-1178 -1132)">
      <circle id="Elipse_1-20" data-name="Elipse 1" cx="2.5" cy="2.5" r="2.5" transform="translate(1212 1249)" fill="#fff"/>
    </g>
    <g transform="translate(-1144 -1132)">
      <circle id="Elipse_1-21" data-name="Elipse 1" cx="2.5" cy="2.5" r="2.5" transform="translate(1212 1249)" fill="#fff"/>
    </g>
    <g transform="translate(-1110 -1132)">
      <circle id="Elipse_1-22" data-name="Elipse 1" cx="2.5" cy="2.5" r="2.5" transform="translate(1212 1249)" fill="#fff"/>
    </g>
    <g transform="translate(-1076 -1132)">
      <circle id="Elipse_1-23" data-name="Elipse 1" cx="2.5" cy="2.5" r="2.5" transform="translate(1212 1249)" fill="#fff"/>
    </g>
    <g transform="translate(-1042 -1132)">
      <circle id="Elipse_1-24" data-name="Elipse 1" cx="2.5" cy="2.5" r="2.5" transform="translate(1212 1249)" fill="#fff"/>
    </g>
    <g transform="translate(-1212 -1093)">
      <circle id="Elipse_1-25" data-name="Elipse 1" cx="2.5" cy="2.5" r="2.5" transform="translate(1212 1249)" fill="#fff"/>
    </g>
    <g transform="translate(-1178 -1093)">
      <circle id="Elipse_1-26" data-name="Elipse 1" cx="2.5" cy="2.5" r="2.5" transform="translate(1212 1249)" fill="#fff"/>
    </g>
    <g transform="translate(-1144 -1093)">
      <circle id="Elipse_1-27" data-name="Elipse 1" cx="2.5" cy="2.5" r="2.5" transform="translate(1212 1249)" fill="#fff"/>
    </g>
    <g transform="translate(-1110 -1093)">
      <circle id="Elipse_1-28" data-name="Elipse 1" cx="2.5" cy="2.5" r="2.5" transform="translate(1212 1249)" fill="#fff"/>
    </g>
    <g transform="translate(-1076 -1093)">
      <circle id="Elipse_1-29" data-name="Elipse 1" cx="2.5" cy="2.5" r="2.5" transform="translate(1212 1249)" fill="#fff"/>
    </g>
    <g transform="translate(-1042 -1093)">
      <circle id="Elipse_1-30" data-name="Elipse 1" cx="2.5" cy="2.5" r="2.5" transform="translate(1212 1249)" fill="#fff"/>
    </g>
  </g>
</svg>
