<svg xmlns="http://www.w3.org/2000/svg" width="39" height="32" viewBox="0 0 39 32">
  <path id="Icon_awesome-twitter" data-name="Icon awesome-twitter" d="M34.991,11.356c.025.35.025.7.025,1.05,0,10.675-8.042,22.975-22.742,22.975A22.421,22.421,0,0,1,0,31.756a16.369,16.369,0,0,0,1.93.1,15.9,15.9,0,0,0,9.923-3.45,8.018,8.018,0,0,1-7.473-5.6,9.98,9.98,0,0,0,1.51.125,8.373,8.373,0,0,0,2.1-.275,8.056,8.056,0,0,1-6.409-7.925v-.1A7.988,7.988,0,0,0,5.2,15.656a8.142,8.142,0,0,1-2.475-10.8A22.645,22.645,0,0,0,19.2,13.306a9.205,9.205,0,0,1-.2-1.85A8.031,8.031,0,0,1,27,3.381a7.936,7.936,0,0,1,5.84,2.55,15.64,15.64,0,0,0,5.073-1.95A8.039,8.039,0,0,1,34.4,8.431,15.9,15.9,0,0,0,39,7.181a17.279,17.279,0,0,1-4.009,4.175Z" transform="translate(0 -3.381)" fill="#fff"/>
</svg>
